<?xml version="1.0" encoding="utf-8"?>
<!-- Generator: Adobe Illustrator 22.1.0, SVG Export Plug-In . SVG Version: 6.00 Build 0)  -->
<svg version="1.1" id="Layer_1" xmlns="http://www.w3.org/2000/svg" xmlns:xlink="http://www.w3.org/1999/xlink" x="0px" y="0px"
	 viewBox="0 0 1366 768" style="enable-background:new 0 0 1366 768;" xml:space="preserve">
<style type="text/css">
	.st0{fill:url(#SVGID_1_);}
	.st1{fill:#FFFFFF;}
	.st2{fill:none;stroke:#000000;stroke-width:8;stroke-miterlimit:10;}
	.st3{fill:#020000;}
</style>
<g>
	<linearGradient id="SVGID_1_" gradientUnits="userSpaceOnUse" x1="627.8989" y1="57.8197" x2="640.9055" y2="683.7662">
		<stop  offset="0" style="stop-color:#ED1E79"/>
		<stop  offset="1" style="stop-color:#662D91"/>
	</linearGradient>
	<path class="st0" d="M634.5,627.5c-67.3,0-130.6-26.2-178.2-73.8c-47.6-47.6-73.8-110.9-73.8-178.2s26.2-130.6,73.8-178.2
		s110.9-73.8,178.2-73.8s130.6,26.2,178.2,73.8c47.6,47.6,73.8,110.9,73.8,178.2s-26.2,130.6-73.8,178.2
		C765.1,601.3,701.8,627.5,634.5,627.5z"/>
	<path d="M634.5,132c32.9,0,64.8,6.4,94.8,19.1c29,12.3,55,29.8,77.4,52.2s39.9,48.4,52.2,77.4c12.7,30,19.1,61.9,19.1,94.8
		s-6.4,64.8-19.1,94.8c-12.3,29-29.8,55-52.2,77.4s-48.4,39.9-77.4,52.2c-30,12.7-61.9,19.1-94.8,19.1s-64.8-6.4-94.8-19.1
		c-29-12.3-55-29.8-77.4-52.2c-22.4-22.4-39.9-48.4-52.2-77.4c-12.7-30-19.1-61.9-19.1-94.8s6.4-64.8,19.1-94.8
		c12.3-29,29.8-55,52.2-77.4c22.4-22.4,48.4-39.9,77.4-52.2C569.7,138.4,601.6,132,634.5,132 M634.5,115
		C490.6,115,374,231.6,374,375.5S490.6,636,634.5,636S895,519.4,895,375.5S778.4,115,634.5,115L634.5,115z"/>
</g>
<g id="Layer_2">
	<g>
		<path class="st1" d="M641.2,512.5c-6.8,0-12.8-0.4-17.9-1.1l-0.5-0.1l-0.5,0c-6.9,0.3-14.6,0.5-22.8,0.5c-1.5,0-2.9,0-4.4,0
			c-29.3-0.2-54.1-9.9-68-26.5c-7.1-8.4-10.5-17.9-9.3-25.3c2.1-12.3,24.3-20.9,54-20.9c10.7,0,21.9,1.1,33.3,3.2
			c13.2,2.4,25.6,6.1,36.9,10.8l4.5,1.9l2.4-4.3c7.6-13.4,17.2-22.7,30.1-29.2c20-10,40.8-15.5,58.3-15.5c16.8,0,28.9,5.2,33.1,14.3
			c9.1,19.6-11.6,56.9-52.9,77.5C697.4,508,664.7,512.5,641.2,512.5C641.2,512.5,641.2,512.5,641.2,512.5z"/>
		<path d="M737.4,411.6c14.6,0,24.8,4.1,28.1,11.1c3.6,7.7,1.1,19.8-6.6,32.2c-9.4,15.1-24.9,28.6-43.8,38.1
			c-19.3,9.7-51,14-73.8,14c-6.4,0-12.4-0.3-17.2-1l-1-0.1l-1,0.1c-6.8,0.3-14.4,0.5-22.5,0.5c-1.5,0-2.9,0-4.4,0
			c-27.7-0.2-50.9-9.1-63.8-24.5c-7.1-8.5-8.8-16.3-8-20.8c1.4-8,19.9-16.4,48.6-16.4c10.4,0,21.2,1,32.3,3.1
			c12.8,2.4,24.9,5.9,35.8,10.5l9,3.8l4.8-8.5c7-12.4,15.9-21,27.8-27C700.8,416.9,720.6,411.6,737.4,411.6 M737.4,400.6
			c-17.7,0-39.2,5.4-60.8,16.1c-16.2,8.1-25.7,19.5-32.5,31.4c-11.2-4.7-24.1-8.6-38.1-11.2c-12-2.2-23.6-3.3-34.3-3.3
			c-32.4,0-56.7,9.6-59.4,25.5c-3.6,21.2,22.7,57.8,82.6,58.2c1.5,0,3,0,4.5,0c8,0,15.7-0.2,23.1-0.5c5.4,0.7,11.7,1.1,18.7,1.1
			c25.4,0,58.4-5,78.8-15.1c44-22,66-62,55.5-84.8C770.1,406.5,755.9,400.6,737.4,400.6L737.4,400.6z"/>
	</g>
	<g>
		<line class="st2" x1="556" y1="434.3" x2="556" y2="508.1"/>
	</g>
	<line class="st2" x1="611" y1="438.4" x2="611" y2="517.4"/>
	<line class="st2" x1="677" y1="420.8" x2="677" y2="515.3"/>
	<line class="st2" x1="727" y1="401" x2="727" y2="498.7"/>
	<g id="Layer_3">
	</g>
</g>
<g id="Layer_5">
</g>
<g id="Layer_4">
	<g>
		<ellipse cx="556" cy="313.5" rx="16.5" ry="58"/>
		<path d="M556,260.3c1.4,1.2,4.5,5.3,7.2,14.8c3.1,10.6,4.8,24.2,4.8,38.4s-1.7,27.8-4.8,38.4c-2.8,9.5-5.8,13.6-7.2,14.8
			c-1.4-1.2-4.5-5.3-7.2-14.8c-3.1-10.6-4.8-24.2-4.8-38.4s1.7-27.8,4.8-38.4C551.5,265.6,554.6,261.5,556,260.3 M556,251
			c-11.6,0-21,28-21,62.5s9.4,62.5,21,62.5s21-28,21-62.5S567.6,251,556,251L556,251z"/>
	</g>
	<g>
		<ellipse class="st3" cx="698" cy="296.5" rx="16.5" ry="58"/>
		<path d="M698,243.3c1.4,1.2,4.5,5.3,7.2,14.8c3.1,10.6,4.8,24.2,4.8,38.4s-1.7,27.8-4.8,38.4c-2.8,9.5-5.8,13.6-7.2,14.8
			c-1.4-1.2-4.5-5.3-7.2-14.8c-3.1-10.6-4.8-24.2-4.8-38.4s1.7-27.8,4.8-38.4C693.5,248.6,696.6,244.5,698,243.3 M698,234
			c-11.6,0-21,28-21,62.5s9.4,62.5,21,62.5s21-28,21-62.5S709.6,234,698,234L698,234z"/>
	</g>
</g>
</svg>
